<?xml version="1.0" encoding="UTF-8" standalone="no"?>
<svg width="66px" height="65px" viewBox="0 0 66 65" version="1.1" xmlns="http://www.w3.org/2000/svg" xmlns:xlink="http://www.w3.org/1999/xlink" xmlns:sketch="http://www.bohemiancoding.com/sketch/ns">
    <!-- Generator: Sketch 3.3 (11970) - http://www.bohemiancoding.com/sketch -->
    <title>Oval 4</title>
    <desc>Created with Sketch.</desc>
    <defs></defs>
    <g id="Page-1" stroke="none" stroke-width="1" fill="none" fill-rule="evenodd" sketch:type="MSPage">
        <g id="Desktop-HD" sketch:type="MSArtboardGroup" transform="translate(-556.000000, -512.000000)" fill="#FFD800">
            <g id="Group" sketch:type="MSLayerGroup" transform="translate(-930.000000, -2300.000000)">
                <g id="sun" transform="translate(1486.000000, 2812.000000)" sketch:type="MSShapeGroup">
                    <path d="M33,8 C35.209139,8 37,6.209139 37,4 C37,1.790861 35.209139,0 33,0 C30.790861,0 29,1.790861 29,4 C29,6.209139 30.790861,8 33,8 Z M49.0696902,13.8488889 C50.7619889,15.2688961 53.2850113,15.0481602 54.7050185,13.3558616 C56.1250256,11.6635629 55.9042898,9.14054055 54.2119911,7.72053338 C52.5196925,6.3005262 49.9966701,6.52126206 48.5766629,8.21356071 C47.1566557,9.90585937 47.3773916,12.4288817 49.0696902,13.8488889 Z M57.6201938,28.6587956 C58.0038068,30.8343728 60.0784403,32.2870468 62.2540175,31.9034339 C64.4295948,31.5198209 65.8822688,29.4451874 65.4986558,27.2696101 C65.1150429,25.0940329 63.0404093,23.6413589 60.8648321,24.0249718 C58.6892549,24.4085848 57.2365809,26.4832183 57.6201938,28.6587956 Z M54.6506351,45.5 C53.5460656,47.4131705 54.2015662,49.8595321 56.1147367,50.9641016 C58.0279072,52.0686711 60.4742688,51.4131705 61.5788383,49.5 C62.6834078,47.5868295 62.0279072,45.1404679 60.1147367,44.0358984 C58.2015662,42.9313289 55.7552046,43.5868295 54.6506351,45.5 Z M41.5505036,56.4923155 C39.474592,57.2478856 38.4042436,59.543255 39.1598137,61.6191666 C39.9153837,63.6950782 42.2107531,64.7654265 44.2866647,64.0098565 C46.3625763,63.2542864 47.4329247,60.958917 46.6773546,58.8830054 C45.9217846,56.8070938 43.6264152,55.7367455 41.5505036,56.4923155 Z M24.4494964,56.4923155 C22.3735848,55.7367455 20.0782154,56.8070938 19.3226454,58.8830054 C18.5670753,60.958917 19.6374237,63.2542864 21.7133353,64.0098565 C23.7892469,64.7654265 26.0846163,63.6950782 26.8401863,61.6191666 C27.5957564,59.543255 26.525408,57.2478856 24.4494964,56.4923155 Z M11.3493649,45.5 C10.2447954,43.5868295 7.79843378,42.9313289 5.88526329,44.0358984 C3.9720928,45.1404679 3.31659218,47.5868295 4.42116168,49.5 C5.52573117,51.4131705 7.9720928,52.0686711 9.88526329,50.9641016 C11.7984338,49.8595321 12.4539344,47.4131705 11.3493649,45.5 Z M8.37980617,28.6587956 C8.76341914,26.4832183 7.31074509,24.4085848 5.13516787,24.0249718 C2.95959066,23.6413589 0.884957112,25.0940329 0.501344151,27.2696101 C0.117731189,29.4451874 1.57040524,31.5198209 3.74598245,31.9034339 C5.92155967,32.2870468 7.99619321,30.8343728 8.37980617,28.6587956 Z M16.9303098,13.8488889 C18.6226084,12.4288817 18.8433443,9.90585937 17.4233371,8.21356071 C16.0033299,6.52126206 13.4803075,6.3005262 11.7880089,7.72053338 C10.0957102,9.14054055 9.87497437,11.6635629 11.2949815,13.3558616 C12.7149887,15.0481602 15.2380111,15.2688961 16.9303098,13.8488889 Z" id="Oval-4"></path>
                </g>
            </g>
        </g>
    </g>
</svg>